<svg xmlns="http://www.w3.org/2000/svg" viewBox="0 0 50 50"><path d="M 19 1 C 18.476563 1 17.941406 1.183594 17.5625 1.5625 C 17.183594 1.941406 17 2.476563 17 3 L 9 3 C 7.355469 3 6 4.355469 6 6 L 6 44 C 6 45.644531 7.355469 47 9 47 L 41 47 C 42.644531 47 44 45.644531 44 44 L 44 6 C 44 4.355469 42.644531 3 41 3 L 33 3 C 33 2.476563 32.816406 1.941406 32.4375 1.5625 C 32.058594 1.183594 31.523438 1 31 1 Z M 19 3 L 31 3 L 31 9 L 19 9 Z M 9 5 L 17 5 L 17 7 L 10 7 L 10 43 L 40 43 L 40 7 L 33 7 L 33 5 L 41 5 C 41.554688 5 42 5.445313 42 6 L 42 44 C 42 44.554688 41.554688 45 41 45 L 9 45 C 8.445313 45 8 44.554688 8 44 L 8 6 C 8 5.445313 8.445313 5 9 5 Z M 12 9 L 17 9 C 17 9.523438 17.183594 10.058594 17.5625 10.4375 C 17.941406 10.816406 18.476563 11 19 11 L 31 11 C 31.523438 11 32.058594 10.816406 32.4375 10.4375 C 32.816406 10.058594 33 9.523438 33 9 L 38 9 L 38 41 L 12 41 Z M 16 19 L 16 21 L 34 21 L 34 19 Z M 16 25 L 16 27 L 34 27 L 34 25 Z M 16 31 L 16 33 L 34 33 L 34 31 Z"/></svg>
